<svg width="180" height="12" viewBox="0 0 180 12" fill="none" xmlns="http://www.w3.org/2000/svg">
    <path d="M180 6.00002L170 0.226512L170 11.7735L180 6.00002ZM-8.74228e-08 7L3 7L3 5L8.74228e-08 5L-8.74228e-08 7ZM9 7L15 7L15 5L9 5L9 7ZM21 7L27 7L27 5L21 5L21 7ZM33 7L39 7L39 5L33 5L33 7ZM45 7L51 7L51 5L45 5L45 7ZM57 7L63 7.00001L63 5.00001L57 5L57 7ZM69 7.00001L75 7.00001L75 5.00001L69 5.00001L69 7.00001ZM81 7.00001L87 7.00001L87 5.00001L81 5.00001L81 7.00001ZM93 7.00001L99 7.00001L99 5.00001L93 5.00001L93 7.00001ZM105 7.00001L111 7.00001L111 5.00001L105 5.00001L105 7.00001ZM117 7.00001L123 7.00001L123 5.00001L117 5.00001L117 7.00001ZM129 7.00001L135 7.00001L135 5.00001L129 5.00001L129 7.00001ZM141 7.00001L147 7.00001L147 5.00001L141 5.00001L141 7.00001ZM153 7.00001L159 7.00001L159 5.00001L153 5.00001L153 7.00001ZM165 7.00001L171 7.00001L171 5.00001L165 5.00001L165 7.00001Z" fill="url(#paint0_linear_1_461)"/>
    <defs>
    <linearGradient id="paint0_linear_1_461" x1="-13.969" y1="5.94318" x2="-13.9676" y2="7.24647" gradientUnits="userSpaceOnUse">
    <stop stop-color="#3984F4"/>
    <stop offset="0.390625" stop-color="#0CD3FF"/>
    <stop offset="0.765625" stop-color="#2F7CF0"/>
    <stop offset="1" stop-color="#0E65E8"/>
    </linearGradient>
    </defs>
    </svg>
    